<?xml version="1.0" encoding="utf-8"?>
<!-- Generator: Adobe Illustrator 25.0.0, SVG Export Plug-In . SVG Version: 6.00 Build 0)  -->
<svg version="1.1" id="Vrstva_1" xmlns="http://www.w3.org/2000/svg" xmlns:xlink="http://www.w3.org/1999/xlink" x="0px" y="0px"
	 viewBox="0 0 303 24" style="enable-background:new 0 0 303 24;" xml:space="preserve">
<style type="text/css">
	.st0{fill:#FFFFFF;}
</style>
<g id="_xD83D__xDDA5_-_x2B__xD83D__xDCF1_-UI">
	<g id="FLIGA-TV_hp_desktop1050" transform="translate(-507.000000, -31.000000)">
		<g id="Group" transform="translate(507.000000, 32.000000)">
			<g id="FL.TV" transform="translate(0.000000, -0.135673)">
				<g id="FORTUNA" transform="translate(0.000000, 0.135673)">
					<polygon id="Path" points="0.3,21.7 0.3,0 17.4,0 17.4,5.4 5.8,5.4 5.8,8.3 14.8,8.3 14.8,13.7 5.8,13.7 5.8,21.7 					"/>
					<path id="Shape" d="M48.3,21.7V0h11.2c1.9,0,3.7,0.7,5.1,2.1c1.3,1.4,2.1,3.3,2,5.2c0,2.8-1.6,5.4-4.1,6.5
						c0.5,0.8,4.1,7.2,4.5,7.9h-6.7c-0.4-0.6-3.5-6.3-3.9-7.1h-2.7v7.1H48.3z M53.7,9.3H59c0.5,0.1,1.1-0.1,1.5-0.5
						c0.4-0.4,0.7-0.9,0.7-1.5c0-0.6-0.2-1.1-0.7-1.5c-0.4-0.4-1-0.6-1.5-0.5h-5.4V9.3z"/>
					<polygon id="Path_1_" points="75.2,21.7 75.2,5.4 69.9,5.4 69.9,0 86.1,0 86.1,5.4 80.8,5.4 80.8,21.7 					"/>
					<path id="Path_2_" d="M90.6,0H96v13.7c0.2,1.5,1.4,2.6,2.9,2.6s2.7-1.1,2.9-2.6V0h5.4v13.3c0,3-1.6,5.7-4.2,7.2
						c-2.6,1.5-5.8,1.5-8.3,0c-2.6-1.5-4.2-4.3-4.2-7.2L90.6,0z"/>
					<path id="Path_3_" d="M112.6,21.8V0c0.8,0.8,10.7,9.5,11.8,10.4v-10h5.4v21.7c-1.1-0.9-10.9-9.6-11.8-10.4v10H112.6z"/>
					<path id="Shape_1_" d="M139.6,21.7h-5.9c0.2-0.5,7.7-21.2,7.8-21.6h5.7c0.1,0.4,8,21.1,8.1,21.6h-6c-0.2-0.5-1.2-3.3-1.3-3.6
						h-7.1L139.6,21.7 M144.3,8.1l-1.6,4.6h3.3C145.9,12.5,144.5,8.4,144.3,8.1"/>
					<path id="Path_4_" class="st0" d="M40.5,11.3c0,4.6-3.7,8.4-8.3,8.4s-8.3-3.7-8.3-8.4S27.5,3,32.2,3S40.5,6.7,40.5,11.3"/>
					<path id="Shape_2_" d="M38.1,10.9c0,3.2-2.6,5.9-5.9,5.9c-3.2,0-5.9-2.6-5.9-5.9C26.4,7.7,29,5,32.2,5c1.6,0,3,0.6,4.1,1.7
						S38.1,9.4,38.1,10.9 M43.4,10.9c0-4.6-2.7-8.7-7-10.5s-9.1-0.8-12.3,2.4S20,11,21.7,15.2s5.9,7,10.4,7
						C38.4,22.2,43.4,17.1,43.4,10.9"/>
				</g>
				<path id="LIGA.TV" d="M179.8,22.3v-3.1h-9.5V-0.1h-3.7v22.4H179.8z M191.6,22.3V-0.1h-3.7v22.4H191.6z M211.2,22.6
					c1.4,0,2.8-0.1,4-0.3c1.2-0.2,2.5-0.5,3.9-0.9l0,0V10.1h-8.2v3.1h4.6V19c-1.3,0.3-2.6,0.4-3.8,0.4c-2.3,0-4.1-0.7-5.4-2.1
					c-1.2-1.4-1.9-3.5-1.9-6.2c0-2.6,0.7-4.7,2.1-6.2s3.3-2.3,5.7-2.3c1.8,0,3.6,0.4,5.4,1.3l0,0l1.3-3c-2.1-0.9-4.3-1.3-6.6-1.3
					c-3.6,0-6.5,1-8.6,3.1c-2.1,2-3.1,4.9-3.1,8.5c0,3.7,0.9,6.5,2.8,8.5S207.8,22.6,211.2,22.6z M229.6,22.3l2.2-6.2h8.6l2.2,6.2
					h3.9l-8.4-22.5h-4l-8.4,22.5H229.6z M239.3,12.9h-6.5l2-5.8c0.5-1.5,0.9-2.9,1.2-4.1c0.1,0.4,0.3,1.1,0.6,1.9l0.1,0.2
					c0.2,0.8,0.4,1.3,0.6,1.7l0,0L239.3,12.9z M254.9,22.7c0.7,0,1.3-0.2,1.7-0.6c0.4-0.4,0.6-1,0.6-1.7c0-0.7-0.2-1.3-0.6-1.7
					s-1-0.6-1.7-0.6c-0.7,0-1.3,0.2-1.7,0.6c-0.4,0.4-0.6,1-0.6,1.7c0,0.7,0.2,1.3,0.6,1.7C253.6,22.5,254.2,22.7,254.9,22.7z
					 M272,22.3V3h6.6v-3.1h-16.8V3h6.6v19.3H272z M294.9,22.3l7.8-22.4h-3.8l-4.7,13.9c-0.2,0.5-0.4,1.2-0.7,2.3
					c-0.3,1-0.5,1.9-0.6,2.7c-0.1-0.5-0.3-1.3-0.5-2.3s-0.5-1.9-0.8-2.6l0,0L287-0.1h-3.8l7.8,22.4H294.9z"/>
			</g>
		</g>
	</g>
</g>
</svg>
