<?xml version="1.0" encoding="UTF-8"?><!DOCTYPE svg PUBLIC "-//W3C//DTD SVG 1.1//EN" "http://www.w3.org/Graphics/SVG/1.1/DTD/svg11.dtd"><svg xmlns="http://www.w3.org/2000/svg" xmlns:xlink="http://www.w3.org/1999/xlink"><symbol id="icon-facebook" viewBox="0 0 24 24"><path d="M9.562 24V12.128H6V8.226h3.562V5.252C9.562 1.869 11.656 0 14.86 0 16.395 0 18 .264 18 .264v3.322h-1.769c-1.742 0-2.286 1.04-2.286 2.108v2.532h3.89l-.621 3.902h-3.269V24H9.562z"/></symbol><symbol id="icon-football-calendar" viewBox="0 0 28 28"><path d="M21 16a5 5 0 00-1.447.213l-.641 1.913-2.016.017a4.975 4.975 0 00-.895 2.756l1.62 1.199-.606 1.922a5.011 5.011 0 002.342 1.704L21 24.552l1.642 1.172a5.011 5.011 0 002.342-1.703l-.606-1.923 1.62-1.2-.003-.115a4.974 4.974 0 00-.891-2.64l-2.016-.017-.64-1.913A5 5 0 0021 16zM8 0v4h8V0h2v4h5v8h-2V6H3v16h8.5v2H1V4h5V0h2zm13 18.552l2.45 1.748-1.05 2.798h-2.8L18.548 20.3l2.45-1.748zM8 15v2H6v-2h2zm5 0v2h-2v-2h2zm2.633 1.506l.065-.077a7.047 7.047 0 01.575-.592l.045-.041a7.035 7.035 0 01.209-.18l.02-.018a7.033 7.033 0 012.042-1.172A6.987 6.987 0 0121 14c.847 0 1.66.15 2.41.426h.002l.03.012.096.036.028.011-.126-.048.159.062.121.05a6.964 6.964 0 011.491.859l.039.03a7.036 7.036 0 01.616.53l.024.023.081.08a7.043 7.043 0 01.391.429l.095.115.048.061a6.97 6.97 0 011.49 4.585l-.006.124v.008l-.004.054v.006l-.014.19a6.98 6.98 0 01-.187 1.089l-.017.067a6.946 6.946 0 01-.259.783l-.028.07-.035.083-.035.083a6.974 6.974 0 01-.422.809l-.03.05a7.015 7.015 0 01-4.045 3.058l-.033.01a6.953 6.953 0 01-1.164.219l-.06.006-.064.005A7.058 7.058 0 0121 28h-.007l-.175-.004-.083-.002-.137-.005a7.05 7.05 0 01-.19-.014l-.064-.005-.06-.006a7.01 7.01 0 01-.87-.145l-.025-.005.012.002-.13-.031a6.948 6.948 0 01-.184-.05 7.014 7.014 0 01-3.88-2.804l-.02-.031-.09-.135-.055-.089-.03-.049a6.982 6.982 0 01-.386-.728l-.018-.04-.018-.041a6.957 6.957 0 01-.348-.985l-.019-.072-.018-.071A6.953 6.953 0 0114 21a6.97 6.97 0 011.493-4.322l.001-.002.05-.061.056-.07.037-.045-.004.006-.039.046-.05.062.089-.108zM8 10v2H6v-2h2zm5 0v2h-2v-2h2zm5 0v2h-2v-2h2z"/></symbol><symbol id="icon-football-calendar2" viewBox="0 0 40 40"><path d="M29 20c5.523 0 10 4.477 10 10s-4.477 10-10 10-10-4.477-10-10 4.477-10 10-10zm.004 2a7.967 7.967 0 00-5.66 2.348c-3.12 3.116-3.12 8.187 0 11.304A7.956 7.956 0 0029.005 38a7.962 7.962 0 005.658-2.347c3.121-3.116 3.121-8.188 0-11.305A7.954 7.954 0 0029.004 22zm-1.954 1.906L29 25.207l1.95-1.3.29.1a6.352 6.352 0 013.394 2.972l.139.28-.973 1.948 1.486 1.983-.065.307a6.362 6.362 0 01-1.036 2.26l-.19.25H32.2l-1.006 2.013-.304.103a6.365 6.365 0 01-1.89.291 6.367 6.367 0 01-1.892-.291l-.304-.104-1.004-2.004h-1.788l-.191-.25a6.368 6.368 0 01-1.042-2.267l-.065-.308 1.486-1.983-.973-1.946.14-.28a6.349 6.349 0 011.107-1.5 6.395 6.395 0 012.576-1.575zM13 0v6h11V0h3v6h7v11h-3V9H6v23h10v3H3V6h7V0h3zm16 27.207l-2.8 2 1.2 3.2h3.2l1.2-3.2-2.8-2zM13 21v3h-3v-3h3zm0-7v3h-3v-3h3zm7 0v3h-3v-3h3zm7 0v3h-3v-3h3z"/></symbol><symbol id="icon-football-past" viewBox="0 0 28 28"><path d="M7 14c.847 0 1.66.15 2.41.426h.002l.03.012.096.036.028.011-.126-.048.159.062.121.05a6.964 6.964 0 011.491.859l.039.03a7.036 7.036 0 01.616.53l.024.023.081.08a7.043 7.043 0 01.391.429l.095.115.048.061a6.97 6.97 0 011.49 4.585l-.006.124v.008l-.004.054v.006l-.014.19a6.98 6.98 0 01-.187 1.089l-.017.067a6.946 6.946 0 01-.259.783l-.028.07-.035.083-.035.083a6.974 6.974 0 01-.422.809l-.03.05a7.015 7.015 0 01-4.045 3.058l-.033.01a6.953 6.953 0 01-1.164.219l-.06.006-.064.005A7.058 7.058 0 017 28l-.265-.006-.137-.005a7.05 7.05 0 01-.19-.014l-.064-.005-.06-.006a7.01 7.01 0 01-.87-.145l-.025-.005.012.002-.13-.031a6.948 6.948 0 01-.184-.05 7.014 7.014 0 01-3.88-2.804l-.02-.031-.09-.135-.055-.089-.03-.049a6.982 6.982 0 01-.386-.728l-.018-.04-.018-.041a6.957 6.957 0 01-.348-.985l-.019-.072-.018-.071A6.952 6.952 0 010 21a6.97 6.97 0 011.493-4.322l.001-.002.05-.061.056-.07.037-.045-.004.006-.039.046-.05.062.089-.108.065-.077a7.047 7.047 0 01.575-.592l.045-.041a7.035 7.035 0 01.209-.18l.02-.018a7.033 7.033 0 012.042-1.172A6.987 6.987 0 017 14zm0 2a5 5 0 00-1.447.213l-.641 1.913-2.016.017a4.975 4.975 0 00-.895 2.756l1.62 1.199-.606 1.922a5.011 5.011 0 002.342 1.704L7 24.552l1.642 1.172a5.011 5.011 0 002.342-1.703l-.606-1.923 1.62-1.2-.003-.115a4.974 4.974 0 00-.891-2.64l-2.016-.017-.64-1.913A5 5 0 007 16zm8-14c6.627 0 12 5.373 12 12 0 5.386-3.578 10.06-8.658 11.528l-.29.08-.507-1.935A10.004 10.004 0 0025 14c0-5.523-4.477-10-10-10a9.992 9.992 0 00-7.605 3.505L9.072 8.68a.5.5 0 01-.146.89L4.38 10.901a.5.5 0 01-.64-.448l-.302-4.728a.5.5 0 01.786-.441L5.75 6.353A11.991 11.991 0 0115 2zM7 18.552L9.45 20.3 8.4 23.098H5.6L4.548 20.3l2.45-1.748zM16 7v6.323l4.371 1.749-.742 1.856L14 14.677V7h2z"/></symbol><symbol id="icon-football-play" viewBox="0 0 28 28"><path d="M21 14a7 7 0 110 14 7 7 0 010-14zm0 9.875l-1.984 1.416.436 1.162a5.67 5.67 0 002.798.075l.298-.075.436-1.162L21 23.875zm4.694-3.436l-1.96 1.45.733 2.324 1.24-.056c.517-.77.85-1.674.937-2.65l.019-.295-.97-.773zm-9.388 0l-.969.772.004.08c.048.961.337 1.86.806 2.637l.147.23 1.238.055.733-2.324-1.96-1.45zM8 0v4h8V0h2v4h5v8h-2V6H3v16h8.5v2H1V4h5V0h2zm13 19.018l-1.984 1.416.85 2.264h2.268l.85-2.264L21 19.018zm1.952-3.34l-1.035.684.773 2.312 2.437.02.33-1.194a5.68 5.68 0 00-2.505-1.821zm-3.904 0a5.677 5.677 0 00-2.324 1.604l-.181.219.33 1.194 2.437-.021.773-2.312-1.035-.684zM9.5 10.31a.5.5 0 01.224.053l5.382 2.69a.5.5 0 010 .895l-5.382 2.691A.5.5 0 019 16.191v-5.382a.5.5 0 01.5-.5z"/></symbol><symbol id="icon-football" viewBox="0 0 26 26"><path class="st0" d="M16.4 1.4c5.2 0 9.5 4.3 9.5 9.5s-4.2 9.5-9.5 9.5-9.5-4.3-9.5-9.5 4.3-9.5 9.5-9.5zm0 13.8l-3 2.1.2.5c.9.3 1.8.5 2.8.5 1 0 1.9-.2 2.8-.5l.2-.5-3-2.1zm7.1-5.2l-3 2.2 1.1 3.5h.6c1.1-1.3 1.7-3 1.7-4.8v-.5l-.4-.4zM9.4 10l-.4.4v.5c0 1.8.7 3.5 1.7 4.8h.6l1.1-3.5-3-2.2zm7-2.1l-3 2.1 1.3 3.4h3.4l1.3-3.4-3-2.1zm1.9-4.3l-.5.3L19 7.4h3.7l.2-.5c-1.1-1.6-2.7-2.8-4.6-3.3zm-3.7 0c-1.9.5-3.5 1.7-4.5 3.3l.2.5H14l1.2-3.5-.6-.3zM.473 22.348l5.63-4.217c.39-.372.965-.282 1.375.2.28.426.227 1.095-.2 1.375l-5.63 4.216c-.388.373-1.094.226-1.374-.2-.28-.426-.227-1.094.199-1.374zM2.029 15.787l1.574-1.175c.426-.28 1.095-.227 1.375.2.28.425.227 1.094-.2 1.374l-1.444 1.23c-.519.318-1.095.227-1.467-.161-.318-.52-.227-1.095.162-1.468zM9.091 22.856l1.574-1.175c.482-.41 1.058-.32 1.43.07.318.518.227 1.094-.161 1.467l-1.668 1.213c-.426.28-1.094.226-1.374-.2-.318-.519-.227-1.095.2-1.375z"/></symbol><symbol id="icon-instagram" viewBox="0 0 24 24"><path d="M13.158-.001h.249l.454.002c1.634.006 2.103.025 3.084.07 1.278.058 2.15.26 2.915.557.79.306 1.458.716 2.126 1.384a5.89 5.89 0 011.385 2.126c.295.763.497 1.635.557 2.913.052 1.152.07 1.598.072 4.052v1.792c-.003 2.454-.02 2.9-.072 4.051-.06 1.278-.262 2.15-.557 2.913a5.891 5.891 0 01-1.385 2.126 5.872 5.872 0 01-2.125 1.385c-.763.297-1.636.499-2.914.557-1.11.051-1.564.068-3.787.072l-.844.001H10.839a87.046 87.046 0 01-2.879-.035l-.324-.012c-.182-.007-.371-.016-.585-.026-1.277-.058-2.15-.26-2.913-.557a5.877 5.877 0 01-2.125-1.385 5.88 5.88 0 01-1.384-2.126c-.297-.763-.5-1.635-.558-2.913l-.025-.584-.016-.433A78.802 78.802 0 010 13.642v-.747l-.001-.281v-1.23-.281l.002-.747c.003-1.21.013-1.82.033-2.397l.012-.324.025-.585C.128 5.773.33 4.9.628 4.138a5.891 5.891 0 011.386-2.126A5.877 5.877 0 014.14.628C4.903.331 5.775.13 7.052.071c.214-.01.403-.019.585-.026l.324-.012C8.501.014 9.071.005 10.136 0l.453-.002h.249zm5.342 4a1.5 1.5 0 10.001 3 1.5 1.5 0 000-3zm-12.5 8a6 6 0 1012 0 6 6 0 00-12 0zm6-4a4 4 0 110 8 4 4 0 010-8z"/></symbol><symbol id="icon-menu-close" viewBox="0 0 38 38"><path d="M27 13.37L21.37 19 27 24.63 24.63 27 19 21.37 13.37 27 11 24.63 16.63 19 11 13.37 13.37 11 19 16.63 24.63 11z"/></symbol><symbol id="icon-menu" viewBox="0 0 38 38"><path d="M9 16a3 3 0 110 6 3 3 0 010-6zm10 0a3 3 0 110 6 3 3 0 010-6zm10 0a3 3 0 110 6 3 3 0 010-6z"/></symbol><symbol id="icon-separator" viewBox="0 0 12 71"><path d="M10 0h2L2 71H0z" fill="#34343B" fill-rule="evenodd" opacity=".5"/></symbol><symbol id="icon-vs-dash" viewBox="0 0 37 4"><path d="M37 4V0H0v4z"/></symbol><symbol id="icon-vs-dots" viewBox="0 0 6 20"><path d="M3 14a3 3 0 110 6 3 3 0 010-6zM3 0a3 3 0 110 6 3 3 0 010-6z" fill-rule="evenodd"/></symbol><symbol id="icon-watch" viewBox="0 0 28 28"><path d="M20 25v2H8v-2h12zm5-22a2 2 0 012 2v16a2 2 0 01-2 2H3a2 2 0 01-2-2V5a2 2 0 012-2zm0 2H3v16h22V5zM11.5 9.309a.5.5 0 01.224.053l6.382 3.19a.5.5 0 010 .895l-6.382 3.191a.5.5 0 01-.724-.447V9.809a.5.5 0 01.5-.5z"/></symbol></svg>